<?xml version="1.0" encoding="UTF-8" standalone="no"?><!DOCTYPE svg PUBLIC "-//W3C//DTD SVG 1.1//EN" "http://www.w3.org/Graphics/SVG/1.1/DTD/svg11.dtd"><svg width="100%" height="100%" viewBox="0 0 341 296" version="1.1" xmlns="http://www.w3.org/2000/svg" xmlns:xlink="http://www.w3.org/1999/xlink" xml:space="preserve" xmlns:serif="http://www.serif.com/" style="fill-rule:evenodd;clip-rule:evenodd;stroke-linecap:round;stroke-linejoin:round;stroke-miterlimit:1.5;"><g id="arrow-right"><g><path d="M97.875,5.18l79.5,0l159,142.82l-159,142.82l-79.5,0l159,-142.82l-159,-142.82l36.136,0l159,142.82l-159,142.82" style="fill:none;stroke:#2ec2c9;stroke-width:9.2px;"/></g><g><path d="M77.375,221.656l82,-73.656l-82,-73.656l-41,0l82,73.656l-82,73.656l41,0l-22.364,0l82,-73.656l-82,-73.656" style="fill:none;stroke:#2ec2c9;stroke-width:4.8px;"/></g><g><path d="M1.625,112.969l39,35.031l-39,35.031l19.5,0l39,-35.031l-39,-35.031l-19.5,0l8.864,0l39,35.031l-39,35.031" style="fill:none;stroke:#2ec2c9;stroke-width:2.85px;"/></g></g></svg>