<?xml version="1.0" encoding="UTF-8" standalone="yes"?>
<svg xmlns="http://www.w3.org/2000/svg" xmlns:xlink="http://www.w3.org/1999/xlink" width="530.719482px" height="587.167603px" version="1.1" viewBox="-196.025681 552.786499 398.662506 441.064819">
  <!--
	Exported with Concepts: Smarter Sketching
	Version: 1.8.1 on Android 9
	https://concepts.app/
	-->
  <title>Untitled 5</title>
  <desc>Drawing exported from Concepts: Smarter Sketching</desc>
    <path opacity="0.729" fill="none" stroke="#29e610" stroke-width="40.000" stroke-opacity="0.729" stroke-linecap="round" stroke-linejoin="round" d="M -167.511 786.694 Q -167.127 786.935 -162.304 791.602 Q -157.480 796.269 -154.549 799.922 Q -151.619 803.574 -148.686 807.126 Q -145.753 810.677 -139.151 819.556 Q -132.550 828.435 -123.063 844.846 Q -113.575 861.258 -104.179 876.332 Q -94.782 891.406 -89.664 899.278 Q -84.545 907.149 -82.210 911.053 Q -79.874 914.957 -76.121 920.863 Q -72.368 926.770 -70.334 930.055 Q -68.300 933.340 -66.534 936.267 Q -64.768 939.195 -62.806 942.720 Q -60.844 946.245 -58.389 950.740 Q -55.935 955.235 -54.218 958.061 Q -52.501 960.887 -51.282 961.993 Q -50.063 963.098 -48.539 963.979 Q -47.015 964.861 -44.873 963.163 Q -42.730 961.465 -40.028 954.796 Q -37.326 948.126 -35.881 943.974 Q -34.437 939.821 -29.624 928.252 Q -24.810 916.683 -21.869 910.067 Q -18.929 903.450 -16.580 898.517 Q -14.232 893.584 -10.744 887.108 Q -7.256 880.631 -5.147 876.829 Q -3.039 873.026 0.944 865.802 Q 4.927 858.578 11.625 847.124 Q 18.324 835.669 21.895 829.738 Q 25.467 823.808 27.151 821.057 Q 28.836 818.306 34.850 808.623 Q 40.865 798.940 44.364 793.254 Q 47.864 787.567 59.012 769.518 Q 70.160 751.468 76.021 742.093 Q 81.881 732.717 85.628 726.815 Q 89.376 720.914 92.012 716.771 Q 94.649 712.628 96.859 709.142 Q 99.070 705.655 102.616 700.026 Q 106.163 694.396 109.124 689.722 Q 112.084 685.048 128.356 659.247 Q 144.628 633.446 154.366 618.169 Q 164.104 602.893 169.478 594.652 Q 174.853 586.412 178.211 581.106 Q 181.568 575.800 184.902 570.468 "></path>
</svg>