<?xml version="1.0" encoding="UTF-8" standalone="no"?><!DOCTYPE svg PUBLIC "-//W3C//DTD SVG 1.1//EN" "http://www.w3.org/Graphics/SVG/1.1/DTD/svg11.dtd"><svg width="100%" height="100%" viewBox="0 0 230 281" version="1.1" xmlns="http://www.w3.org/2000/svg" xmlns:xlink="http://www.w3.org/1999/xlink" xml:space="preserve" xmlns:serif="http://www.serif.com/" style="fill-rule:evenodd;clip-rule:evenodd;stroke-linejoin:round;stroke-miterlimit:1.5;"><rect id="Artboard1" x="-154" y="-123" width="500" height="500" style="fill:none;"/><g id="Artboard11" serif:id="Artboard1"><g><path d="M0.5,252.775c0,15.545 12.602,28.147 28.147,28.147c36.157,0 98.549,0 134.706,0c15.545,0 28.147,-12.602 28.147,-28.147c0,-44.418 0,-125.775 0,-125.775l-191,0l0,125.775Z" style="fill:#ffec3f;"/><path d="M38.276,127l0,-56.276c0,-31.88 25.843,-57.724 57.724,-57.724l0,0c31.881,0 57.724,25.844 57.724,57.724l0,56.276" style="fill:none;stroke:#afafaf;stroke-width:24.96px;"/><g><circle cx="96" cy="203.961" r="28.5" style="fill:#afafaf;"/><path d="M81,203.961l29,0" style="fill:none;stroke:#000;stroke-width:6.41px;"/></g></g></g></svg>