<?xml version="1.0" encoding="UTF-8" standalone="no"?><!DOCTYPE svg PUBLIC "-//W3C//DTD SVG 1.1//EN" "http://www.w3.org/Graphics/SVG/1.1/DTD/svg11.dtd"><svg width="100%" height="100%" viewBox="0 0 306 306" version="1.1" xmlns="http://www.w3.org/2000/svg" xmlns:xlink="http://www.w3.org/1999/xlink" xml:space="preserve" xmlns:serif="http://www.serif.com/" style="fill-rule:evenodd;clip-rule:evenodd;stroke-linejoin:round;stroke-miterlimit:2;"><g id="magnifying-glass"><path d="M95.78,0.28c52.707,0 95.5,42.792 95.5,95.5c0,52.707 -42.793,95.5 -95.5,95.5c-52.708,0 -95.5,-42.793 -95.5,-95.5c0,-52.708 42.792,-95.5 95.5,-95.5Zm0,34.618c33.601,0 60.881,27.28 60.881,60.882c0,33.601 -27.28,60.881 -60.881,60.881c-33.602,0 -60.882,-27.28 -60.882,-60.881c0,-33.602 27.28,-60.882 60.882,-60.882Z" style="fill:#36c95e;"/><path d="M128.28,153.055c0,0 103.913,103.913 140.278,140.278c6.841,6.842 17.933,6.842 24.774,0c0.001,0 0.001,0 0.001,-0.001c6.842,-6.841 6.842,-17.933 0,-24.774c-36.365,-36.365 -140.278,-140.278 -140.278,-140.278l-24.775,24.775Z" style="fill:#36c95e;"/></g></svg>