<?xml version="1.0" encoding="UTF-8" standalone="no"?><!DOCTYPE svg PUBLIC "-//W3C//DTD SVG 1.1//EN" "http://www.w3.org/Graphics/SVG/1.1/DTD/svg11.dtd"><svg width="100%" height="100%" viewBox="0 0 212 344" version="1.1" xmlns="http://www.w3.org/2000/svg" xmlns:xlink="http://www.w3.org/1999/xlink" xml:space="preserve" xmlns:serif="http://www.serif.com/" style="fill-rule:evenodd;clip-rule:evenodd;stroke-linejoin:round;stroke-miterlimit:2;"><g><path d="M77.437,25.27c0,-13.807 -11.192,-25 -24.999,-25c-8.578,0 -18.173,0 -26.751,0c-13.807,0 -24.999,11.193 -24.999,25c-0.001,63.423 -0.001,230.037 -0.001,293.46c0.001,13.807 11.193,25 25,25c8.578,0 18.173,0 26.751,0c13.807,0 24.999,-11.193 24.999,-25c0,-63.423 0,-230.037 0,-293.46Z" style="fill:#f06;"/><path d="M211.313,25.27c-0.001,-13.807 -11.193,-25 -25,-25c-8.578,0 -18.173,0 -26.751,0c-13.807,0 -24.999,11.193 -24.999,25c-0.001,63.423 -0.001,230.037 -0.001,293.46c0.001,13.807 11.193,25 25,25c8.578,0 18.173,0 26.751,0c13.807,0 24.999,-11.193 24.999,-25c0.001,-63.423 0.001,-230.037 0.001,-293.46Z" style="fill:#f06;"/></g></svg>