<?xml version="1.0" encoding="UTF-8" standalone="no"?><!DOCTYPE svg PUBLIC "-//W3C//DTD SVG 1.1//EN" "http://www.w3.org/Graphics/SVG/1.1/DTD/svg11.dtd"><svg width="100%" height="100%" viewBox="0 0 326 344" version="1.1" xmlns="http://www.w3.org/2000/svg" xmlns:xlink="http://www.w3.org/1999/xlink" xml:space="preserve" xmlns:serif="http://www.serif.com/" style="fill-rule:evenodd;clip-rule:evenodd;stroke-linejoin:round;stroke-miterlimit:2;"><rect id="Artboard10" x="-87" y="-78" width="500" height="500" style="fill:none;"/><path d="M265.058,151.564c6.647,4.683 10.601,12.305 10.601,20.436c0,8.131 -3.954,15.753 -10.601,20.436c-43.633,30.745 -126.264,88.969 -175.317,123.532c-7.631,5.378 -17.623,6.055 -25.911,1.756c-8.287,-4.298 -13.489,-12.856 -13.489,-22.192c0,-65.419 0,-181.645 0,-247.064c0,-9.336 5.202,-17.894 13.489,-22.192c8.288,-4.299 18.28,-3.622 25.911,1.756c49.053,34.563 131.684,92.787 175.317,123.532Z" style="fill:#f06;"/></svg>