<?xml version="1.0" encoding="UTF-8" standalone="no"?><!DOCTYPE svg PUBLIC "-//W3C//DTD SVG 1.1//EN" "http://www.w3.org/Graphics/SVG/1.1/DTD/svg11.dtd"><svg width="100%" height="100%" viewBox="0 0 230 281" version="1.1" xmlns="http://www.w3.org/2000/svg" xmlns:xlink="http://www.w3.org/1999/xlink" xml:space="preserve" xmlns:serif="http://www.serif.com/" style="fill-rule:evenodd;clip-rule:evenodd;stroke-linejoin:round;stroke-miterlimit:1.5;"><g><path d="M0.5,252.775c0,15.545 12.602,28.147 28.147,28.147c36.157,0 98.549,0 134.706,0c15.545,0 28.147,-12.602 28.147,-28.147c0,-44.418 0,-125.775 0,-125.775l-191,0l0,125.775Z" style="fill:#ffec3f;"/><path d="M217.276,127l0,-82.226c0,-8.427 -3.348,-16.509 -9.307,-22.468c-5.959,-5.958 -14.04,-9.306 -22.467,-9.306l-0.004,0c-8.427,0 -16.508,3.348 -22.467,9.306c-5.959,5.959 -9.307,14.041 -9.307,22.468l0,82.226" style="fill:none;stroke:#afafaf;stroke-width:24.96px;"/><circle cx="96" cy="203.961" r="28.5" style="fill:#afafaf;"/><path d="M95.5,189.461l0,29" style="fill:none;stroke:#000;stroke-width:6.41px;"/></g></svg>