<?xml version="1.0" encoding="UTF-8" standalone="no"?><!DOCTYPE svg PUBLIC "-//W3C//DTD SVG 1.1//EN" "http://www.w3.org/Graphics/SVG/1.1/DTD/svg11.dtd"><svg width="100%" height="100%" viewBox="0 0 276 276" version="1.1" xmlns="http://www.w3.org/2000/svg" xmlns:xlink="http://www.w3.org/1999/xlink" xml:space="preserve" xmlns:serif="http://www.serif.com/" style="fill-rule:evenodd;clip-rule:evenodd;stroke-linecap:round;stroke-linejoin:round;stroke-miterlimit:1.5;"><g><ellipse cx="138" cy="138" rx="127.329" ry="127.5" style="fill:#fff;stroke:#4b4b4b;stroke-width:20.25px;"/><g><path d="M195,138l45.5,0" style="fill:none;stroke:#898989;stroke-width:11.8px;"/><path d="M194.294,103.548l23.456,-14.356" style="fill:none;stroke:#898989;stroke-width:6.15px;"/><path d="M171,80.842l13.75,-23.815" style="fill:none;stroke:#898989;stroke-width:6.15px;"/><path d="M138,81l0,-45.5" style="fill:none;stroke:#898989;stroke-width:11.8px;"/></g><g><path d="M138,195l0,45.5" style="fill:none;stroke:#898989;stroke-width:11.8px;"/><path d="M172.452,194.294l14.356,23.456" style="fill:none;stroke:#898989;stroke-width:6.15px;"/><path d="M195.158,171l23.815,13.75" style="fill:none;stroke:#898989;stroke-width:6.15px;"/></g><g><path d="M81,138l-45.5,0" style="fill:none;stroke:#898989;stroke-width:11.8px;"/><path d="M81.706,172.452l-23.456,14.356" style="fill:none;stroke:#898989;stroke-width:6.15px;"/><path d="M105,195.158l-13.75,23.815" style="fill:none;stroke:#898989;stroke-width:6.15px;"/></g><g><path d="M103.548,81.706l-14.356,-23.456" style="fill:none;stroke:#898989;stroke-width:6.15px;"/><path d="M80.842,105l-23.815,-13.75" style="fill:none;stroke:#898989;stroke-width:6.15px;"/></g><g><g><path d="M176.564,137.031c0.461,0.098 0.791,0.505 0.792,0.977c0.001,0.471 -0.327,0.879 -0.788,0.979c-11.06,2.391 -38.387,8.299 -38.387,8.299l-0.037,-18.401c0,0 27.351,5.799 38.42,8.146Z" style="fill:#d21a3c;"/><path d="M115.187,64.281c-0.087,-0.478 0.2,-0.945 0.666,-1.083c0.466,-0.138 0.961,0.097 1.148,0.546c8.481,20.375 29.822,71.644 29.822,71.644l-17.646,5.224c0,0 -10.011,-54.623 -13.99,-76.331Z" style="fill:#d01a3b;"/></g><circle cx="138" cy="138" r="9.202" style="fill:#d01a3b;"/></g></g></svg>